<svg width="14" height="26" viewBox="0 0 14 26" fill="none" xmlns="http://www.w3.org/2000/svg">
<path d="M3.9 14.6887H0.68C0.16 14.6887 0 14.4889 0 14.0092C0 12.7102 0 11.3713 0 10.0723C0 9.55265 0.2 9.35281 0.68 9.35281H3.9V6.495C3.86 5.23597 4.16 3.95696 4.78 2.81783C5.44 1.67871 6.48 0.839354 7.68 0.419677C8.5 0.119908 9.3 0 10.16 0H13.34C13.8 0 14 0.199846 14 0.659493V4.35665C14 4.81629 13.8 5.01614 13.34 5.01614C12.46 5.01614 11.58 5.01614 10.7 5.05611C9.82 5.09608 9.36 5.47579 9.36 6.39508C9.32 7.37433 9.36 8.3136 9.36 9.31284H13.1C13.62 9.31284 13.82 9.51268 13.82 10.0323V13.9693C13.82 14.4889 13.66 14.6887 13.1 14.6887H9.4V25.2606C9.4 25.8201 9.2 26 8.66 26H4.6C4.12 26 3.92 25.8002 3.92 25.3205L3.9 14.6887Z" fill="white"/>
</svg>
