<svg width="24" height="24" viewBox="0 0 24 24" fill="none" xmlns="http://www.w3.org/2000/svg">
<path d="M11.7188 0C5.24667 0 0 5.24667 0 11.7188C0 18.1908 5.24667 23.4375 11.7188 23.4375C18.1908 23.4375 23.4375 18.1908 23.4375 11.7188C23.4375 5.24667 18.1908 0 11.7188 0ZM18.959 14.6972C18.9027 15.8113 18.5896 16.91 17.7777 17.7133C16.9579 18.5242 15.8541 18.8264 14.7292 18.882H8.70834C7.58334 18.8264 6.47962 18.5244 5.65983 17.7133C4.84786 16.91 4.53483 15.8113 4.47858 14.6972V8.74031C4.53483 7.62619 4.84791 6.52753 5.65983 5.72419C6.47962 4.91325 7.58348 4.61109 8.70834 4.55545H14.7292C15.8542 4.61109 16.9579 4.91311 17.7777 5.72419C18.5896 6.52753 18.9027 7.62619 18.9589 8.74031L18.959 14.6972Z" fill="white"/>
</svg>
