<svg width="20" height="20" viewBox="0 0 20 20" fill="none" xmlns="http://www.w3.org/2000/svg">
<path d="M10.0001 18.5706C5.28585 18.5706 1.42871 14.7134 1.42871 9.99916C1.42871 5.28488 5.28585 1.42773 10.0001 1.42773C14.7144 1.42773 18.5716 5.28488 18.5716 9.99916C18.5716 14.7134 14.7144 18.5706 10.0001 18.5706ZM10.0001 2.85631C6.07157 2.85631 2.85728 6.07059 2.85728 9.99916C2.85728 13.9277 6.07157 17.142 10.0001 17.142C13.9287 17.142 17.143 13.9277 17.143 9.99916C17.143 6.07059 13.9287 2.85631 10.0001 2.85631Z" fill="#00A8AE"/>
<path d="M14.7857 6.64202C14.5 6.35631 14.0714 6.35631 13.7857 6.64202L8.57143 11.8563L6.21429 9.49916C5.92857 9.21345 5.5 9.21345 5.21429 9.49916C4.92857 9.78488 4.92857 10.2134 5.21429 10.4992L8.07143 13.3563C8.35714 13.642 8.78571 13.642 9.07143 13.3563L14.7857 7.64202C15.0714 7.35631 15.0714 6.92773 14.7857 6.64202Z" fill="#00A8AE"/>
</svg>
