<svg width="24" height="24" viewBox="0 0 24 24" fill="none" xmlns="http://www.w3.org/2000/svg">
<path d="M12.0001 22.2863C6.34293 22.2863 1.71436 17.6577 1.71436 12.0006C1.71436 6.34342 6.34293 1.71484 12.0001 1.71484C17.6572 1.71484 22.2858 6.34342 22.2858 12.0006C22.2858 17.6577 17.6572 22.2863 12.0001 22.2863ZM12.0001 3.42913C7.28578 3.42913 3.42864 7.28627 3.42864 12.0006C3.42864 16.7148 7.28578 20.572 12.0001 20.572C16.7144 20.572 20.5715 16.7148 20.5715 12.0006C20.5715 7.28627 16.7144 3.42913 12.0001 3.42913Z" fill="#00A8AE"/>
<path d="M17.7429 7.97199C17.4 7.62913 16.8857 7.62913 16.5429 7.97199L10.2857 14.2291L7.45714 11.4006C7.11429 11.0577 6.6 11.0577 6.25714 11.4006C5.91429 11.7434 5.91429 12.2577 6.25714 12.6006L9.68571 16.0291C10.0286 16.372 10.5429 16.372 10.8857 16.0291L17.7429 9.17199C18.0857 8.82913 18.0857 8.31484 17.7429 7.97199Z" fill="#00A8AE"/>
</svg>
