<svg width="21" height="21" viewBox="0 0 21 21" fill="none" xmlns="http://www.w3.org/2000/svg">
<path d="M10.2857 20.5714C4.62857 20.5714 0 15.9429 0 10.2857C0 4.62857 4.62857 0 10.2857 0C15.9429 0 20.5714 4.62857 20.5714 10.2857C20.5714 15.9429 15.9429 20.5714 10.2857 20.5714ZM10.2857 1.71429C5.57143 1.71429 1.71429 5.57143 1.71429 10.2857C1.71429 15 5.57143 18.8571 10.2857 18.8571C15 18.8571 18.8571 15 18.8571 10.2857C18.8571 5.57143 15 1.71429 10.2857 1.71429Z" fill="#00A8AE"/>
<path d="M16.0285 6.25714C15.6856 5.91429 15.1714 5.91429 14.8285 6.25714L8.57136 12.5143L5.74279 9.68571C5.39993 9.34286 4.88564 9.34286 4.54279 9.68571C4.19993 10.0286 4.19993 10.5429 4.54279 10.8857L7.97136 14.3143C8.31422 14.6571 8.8285 14.6571 9.17136 14.3143L16.0285 7.45714C16.3714 7.11429 16.3714 6.6 16.0285 6.25714Z" fill="#00A8AE"/>
</svg>
