<svg width="64" height="74" viewBox="0 0 64 74" fill="none" xmlns="http://www.w3.org/2000/svg">
<path d="M9.60036 9.60036C9.60023 9.3902 9.64153 9.18208 9.7219 8.98789C9.80226 8.79371 9.92012 8.61727 10.0687 8.46866C10.2173 8.32006 10.3938 8.2022 10.5879 8.12184C10.7821 8.04147 10.9903 8.00017 11.2004 8.0003H28.8011C29.2254 8.0003 29.6324 8.16887 29.9325 8.46894C30.2326 8.76901 30.4011 9.17599 30.4011 9.60036C30.4011 10.0247 30.2326 10.4317 29.9325 10.7318C29.6324 11.0318 29.2254 11.2004 28.8011 11.2004H11.2004C10.9903 11.2005 10.7821 11.1592 10.5879 11.0789C10.3938 10.9985 10.2173 10.8807 10.0687 10.732C9.92012 10.5834 9.80226 10.407 9.7219 10.2128C9.64153 10.0186 9.60023 9.81051 9.60036 9.60036ZM11.2004 19.2007H46.4017C46.8261 19.2007 47.2331 19.0321 47.5331 18.7321C47.8332 18.432 48.0018 18.025 48.0018 17.6007C48.0018 17.1763 47.8332 16.7693 47.5331 16.4692C47.2331 16.1692 46.8261 16.0006 46.4017 16.0006H11.2004C10.7761 16.0006 10.3691 16.1692 10.069 16.4692C9.76893 16.7693 9.60036 17.1763 9.60036 17.6007C9.60036 18.025 9.76893 18.432 10.069 18.7321C10.3691 19.0321 10.7761 19.2007 11.2004 19.2007ZM11.2004 27.201H38.4014C38.8258 27.201 39.2328 27.0324 39.5328 26.7324C39.8329 26.4323 40.0015 26.0253 40.0015 25.601C40.0015 25.1766 39.8329 24.7696 39.5328 24.4695C39.2328 24.1695 38.8258 24.0009 38.4014 24.0009H11.2004C10.7761 24.0009 10.3691 24.1695 10.069 24.4695C9.76893 24.7696 9.60036 25.1766 9.60036 25.601C9.60036 26.0253 9.76893 26.4323 10.069 26.7324C10.3691 27.0324 10.7761 27.201 11.2004 27.201ZM11.2004 35.2013H46.4017C46.8261 35.2013 47.2331 35.0327 47.5331 34.7327C47.8332 34.4326 48.0018 34.0256 48.0018 33.6012C48.0018 33.1769 47.8332 32.7699 47.5331 32.4698C47.2331 32.1698 46.8261 32.0012 46.4017 32.0012H11.2004C10.7761 32.0012 10.3691 32.1698 10.069 32.4698C9.76893 32.7699 9.60036 33.1769 9.60036 33.6012C9.60036 34.0256 9.76893 34.4326 10.069 34.7327C10.3691 35.0327 10.7761 35.2013 11.2004 35.2013ZM28.8011 40.0015H11.2004C10.7761 40.0015 10.3691 40.1701 10.069 40.4701C9.76893 40.7702 9.60036 41.1772 9.60036 41.6015C9.60036 42.0259 9.76893 42.4329 10.069 42.733C10.3691 43.033 10.7761 43.2016 11.2004 43.2016H28.8011C29.2254 43.2016 29.6324 43.033 29.9325 42.733C30.2326 42.4329 30.4011 42.0259 30.4011 41.6015C30.4011 41.1772 30.2326 40.7702 29.9325 40.4701C29.6324 40.1701 29.2254 40.0015 28.8011 40.0015ZM62.5961 46.3689L60.3334 48.6316L57.6021 51.3629V68.8026C57.6007 70.0752 57.0946 71.2953 56.1947 72.1953C55.2948 73.0952 54.0746 73.6013 52.802 73.6027H4.80018C3.52752 73.6013 2.30739 73.0952 1.40748 72.1953C0.507578 71.2953 0.00139762 70.0752 0 68.8026V4.80018C0.00139762 3.52752 0.507578 2.30739 1.40748 1.40748C2.30739 0.507578 3.52752 0.00139762 4.80018 0H52.802C54.0746 0.00139762 55.2948 0.507578 56.1947 1.40748C57.0946 2.30739 57.6007 3.52752 57.6021 4.80018V38.4669C58.4546 38.162 59.3759 38.1045 60.2596 38.3012C61.1433 38.4978 61.9534 38.9405 62.5961 39.5781V39.5797C63.4951 40.4807 64 41.7015 64 42.9743C64 44.2471 63.4951 45.4679 62.5961 46.3689ZM58.071 41.8438L57.1381 42.7753L57.1274 42.7861L56.9396 42.9736L58.0708 44.1056L59.2022 45.2374L60.3333 44.1063C60.485 43.9584 60.6058 43.7819 60.6887 43.587C60.7716 43.392 60.815 43.1826 60.8163 42.9708C60.8177 42.7589 60.7769 42.549 60.6965 42.353C60.616 42.157 60.4975 41.979 60.3477 41.8292C60.1979 41.6794 60.0199 41.5609 59.8239 41.4804C59.628 41.4 59.418 41.3592 59.2062 41.3606C58.9943 41.3619 58.7849 41.4053 58.59 41.4882C58.395 41.5712 58.2188 41.6921 58.071 41.8438ZM55.8083 46.3681L54.6767 45.2362L39.1795 60.7351L38.6139 63.5633L41.4415 62.9977L56.9389 47.5003L55.8083 46.3681ZM54.402 54.563L43.3626 65.6024C43.1392 65.8255 42.8549 65.9777 42.5454 66.0399L36.8874 67.1711C36.784 67.1918 36.6788 67.2026 36.5734 67.2031C36.3367 67.203 36.103 67.1504 35.8891 67.049C35.6752 66.9477 35.4865 66.8001 35.3365 66.617C35.1865 66.434 35.079 66.2199 35.0217 65.9902C34.9644 65.7606 34.9588 65.5211 35.0053 65.289L36.1381 59.6325C36.2004 59.323 36.3525 59.0387 36.5756 58.8153L53.5457 41.8416L54.402 40.9858V4.80018C54.4017 4.37591 54.233 3.9691 53.933 3.66909C53.633 3.36909 53.2262 3.20042 52.802 3.20012H4.80018C4.37591 3.20042 3.9691 3.36909 3.66909 3.66909C3.36909 3.9691 3.20042 4.37591 3.20012 4.80018V68.8026C3.20042 69.2268 3.36909 69.6336 3.66909 69.9336C3.9691 70.2336 4.37591 70.4023 4.80018 70.4026H52.802C53.2262 70.4023 53.633 70.2336 53.933 69.9336C54.233 69.6336 54.4017 69.2268 54.402 68.8026V54.563Z" fill="white"/>
</svg>
