<svg width="20" height="20" viewBox="0 0 20 20" fill="none" xmlns="http://www.w3.org/2000/svg">
<g opacity="0.4" clip-path="url(#clip0_393_501)">
<path d="M10 19.8633C4.56133 19.8633 0.136719 15.4387 0.136719 10C0.136719 4.56133 4.56133 0.136719 10 0.136719C15.4387 0.136719 19.8633 4.56133 19.8633 10C19.8633 15.4387 15.4387 19.8633 10 19.8633ZM10 1.11328C5.1 1.11328 1.11328 5.1 1.11328 10C1.11328 14.9 5.1 18.8867 10 18.8867C14.9 18.8867 18.8867 14.9 18.8867 10C18.8867 5.1 14.9 1.11328 10 1.11328Z" fill="white"/>
<path d="M13.207 15.8329C13.0776 15.8328 12.9536 15.7814 12.8621 15.6899L9.99996 12.8278L7.13785 15.6899C7.09254 15.7352 7.03874 15.7712 6.97952 15.7958C6.92031 15.8203 6.85683 15.8329 6.79273 15.8329C6.72863 15.8329 6.66516 15.8203 6.60594 15.7958C6.54673 15.7712 6.49293 15.7352 6.44762 15.6899L4.31051 13.5528C4.26516 13.5075 4.22919 13.4537 4.20465 13.3945C4.18011 13.3352 4.16748 13.2718 4.16748 13.2077C4.16748 13.1436 4.18011 13.0801 4.20465 13.0209C4.22919 12.9617 4.26516 12.9079 4.31051 12.8626L7.17262 10.0004L4.31051 7.13834C4.26516 7.09303 4.22919 7.03923 4.20465 6.98001C4.18011 6.92079 4.16748 6.85732 4.16748 6.79322C4.16748 6.72912 4.18011 6.66565 4.20465 6.60643C4.22919 6.54721 4.26516 6.49341 4.31051 6.4481L6.44762 4.31099C6.49293 4.26565 6.54673 4.22968 6.60594 4.20514C6.66516 4.1806 6.72863 4.16797 6.79273 4.16797C6.85683 4.16797 6.92031 4.1806 6.97952 4.20514C7.03874 4.22968 7.09254 4.26565 7.13785 4.31099L9.99996 7.1731L12.8621 4.31099C12.9074 4.26565 12.9612 4.22968 13.0204 4.20514C13.0796 4.1806 13.1431 4.16797 13.2072 4.16797C13.2713 4.16797 13.3348 4.1806 13.394 4.20514C13.4532 4.22968 13.507 4.26565 13.5523 4.31099L15.6894 6.4481C15.7348 6.49341 15.7707 6.54721 15.7953 6.60643C15.8198 6.66565 15.8324 6.72912 15.8324 6.79322C15.8324 6.85732 15.8198 6.92079 15.7953 6.98001C15.7707 7.03923 15.7348 7.09303 15.6894 7.13834L12.8273 10.0004L15.6894 12.8626C15.7348 12.9079 15.7707 12.9617 15.7953 13.0209C15.8198 13.0801 15.8324 13.1436 15.8324 13.2077C15.8324 13.2718 15.8198 13.3352 15.7953 13.3945C15.7707 13.4537 15.7348 13.5075 15.6894 13.5528L13.5523 15.6899C13.507 15.7352 13.4531 15.7712 13.3939 15.7957C13.3346 15.8203 13.2711 15.8329 13.207 15.8329ZM9.99996 11.6489C10.0641 11.6489 10.1277 11.6615 10.1869 11.6861C10.2462 11.7107 10.3 11.7468 10.3453 11.7922L13.207 14.654L14.6523 13.2087L11.7906 10.3465C11.7451 10.3013 11.7091 10.2474 11.6845 10.1882C11.6599 10.1289 11.6472 10.0654 11.6472 10.0012C11.6472 9.93707 11.6599 9.87354 11.6845 9.81428C11.7091 9.75502 11.7451 9.70121 11.7906 9.65592L14.6523 6.7942L13.207 5.34889L10.3449 8.2106C10.2996 8.25601 10.2457 8.29203 10.1865 8.3166C10.1272 8.34118 10.0637 8.35383 9.99957 8.35383C9.93542 8.35383 9.8719 8.34118 9.81265 8.3166C9.7534 8.29203 9.69957 8.25601 9.65426 8.2106L6.79293 5.34693L5.34762 6.79224L8.20973 9.65396C8.30123 9.74559 8.35262 9.86979 8.35262 9.99928C8.35262 10.1288 8.30123 10.253 8.20973 10.3446L5.34762 13.2067L6.79293 14.652L9.65465 11.7903C9.74652 11.6993 9.87068 11.6485 9.99996 11.6489Z" fill="white"/>
</g>
<defs>
<clipPath id="clip0_393_501">
<rect width="20" height="20" fill="white"/>
</clipPath>
</defs>
</svg>
