<svg width="12" height="12" viewBox="0 0 12 12" fill="none" xmlns="http://www.w3.org/2000/svg">
<path d="M9.03951 11.6649C8.91014 11.6648 8.78608 11.6134 8.69459 11.5219L5.83248 8.65982L2.97037 11.5219C2.92506 11.5673 2.87126 11.6032 2.81204 11.6278C2.75283 11.6523 2.68935 11.665 2.62525 11.665C2.56115 11.665 2.49768 11.6523 2.43846 11.6278C2.37925 11.6032 2.32544 11.5673 2.28014 11.5219L0.143026 9.38482C0.0976834 9.33951 0.0617136 9.28571 0.0371724 9.2265C0.0126313 9.16728 0 9.10381 0 9.03971C0 8.97561 0.0126313 8.91213 0.0371724 8.85292C0.0617136 8.7937 0.0976834 8.7399 0.143026 8.69459L3.00514 5.83248L0.143026 2.97037C0.0976834 2.92506 0.0617136 2.87126 0.0371724 2.81204C0.0126313 2.75283 0 2.68935 0 2.62525C0 2.56115 0.0126313 2.49768 0.0371724 2.43846C0.0617136 2.37925 0.0976834 2.32544 0.143026 2.28014L2.28014 0.143026C2.32544 0.0976834 2.37925 0.0617136 2.43846 0.0371724C2.49768 0.0126313 2.56115 0 2.62525 0C2.68935 0 2.75283 0.0126313 2.81204 0.0371724C2.87126 0.0617136 2.92506 0.0976834 2.97037 0.143026L5.83248 3.00514L8.69459 0.143026C8.7399 0.0976834 8.7937 0.0617136 8.85292 0.0371724C8.91213 0.0126313 8.97561 0 9.03971 0C9.10381 0 9.16728 0.0126313 9.2265 0.0371724C9.28571 0.0617136 9.33951 0.0976834 9.38482 0.143026L11.5219 2.28014C11.5673 2.32544 11.6032 2.37925 11.6278 2.43846C11.6523 2.49768 11.665 2.56115 11.665 2.62525C11.665 2.68935 11.6523 2.75283 11.6278 2.81204C11.6032 2.87126 11.5673 2.92506 11.5219 2.97037L8.65982 5.83248L11.5219 8.69459C11.5673 8.7399 11.6032 8.7937 11.6278 8.85292C11.6523 8.91213 11.665 8.97561 11.665 9.03971C11.665 9.10381 11.6523 9.16728 11.6278 9.2265C11.6032 9.28571 11.5673 9.33951 11.5219 9.38482L9.38482 11.5219C9.33947 11.5673 9.28564 11.6032 9.22639 11.6278C9.16714 11.6523 9.10364 11.6649 9.03951 11.6649ZM5.83248 7.48092C5.89664 7.48089 5.96018 7.49354 6.01944 7.51815C6.0787 7.54275 6.13251 7.57881 6.17779 7.62428L9.03951 10.486L10.4848 9.04068L7.6231 6.17857C7.57766 6.13328 7.5416 6.07947 7.51699 6.02021C7.49239 5.96095 7.47972 5.89742 7.47972 5.83326C7.47972 5.7691 7.49239 5.70557 7.51699 5.64631C7.5416 5.58705 7.57766 5.53324 7.6231 5.48795L10.4848 2.62623L9.03951 1.18092L6.1774 4.04264C6.13208 4.08804 6.07826 4.12406 6.01901 4.14863C5.95975 4.17321 5.89624 4.18586 5.83209 4.18586C5.76794 4.18586 5.70442 4.17321 5.64517 4.14863C5.58592 4.12406 5.53209 4.08804 5.48678 4.04264L2.62545 1.17896L1.18014 2.62428L4.04224 5.48599C4.13375 5.57762 4.18514 5.70182 4.18514 5.83131C4.18514 5.9608 4.13375 6.08499 4.04224 6.17662L1.18014 9.03873L2.62545 10.484L5.48717 7.62232C5.57903 7.53137 5.7032 7.48052 5.83248 7.48092Z" fill="white"/>
</svg>
