<svg width="12" height="12" viewBox="0 0 12 12" fill="none" xmlns="http://www.w3.org/2000/svg">
<path d="M8.85759 0.0301641C7.39106 -0.0100547 4.45575 -0.0100547 2.98921 0.0301641C2.22604 0.0511172 1.36087 0.241101 0.81712 0.821883C0.252089 1.42559 0.0385729 2.15496 0.0169167 2.97091C-0.0211458 4.40304 0.0169167 8.70148 0.0169167 8.70148C0.0417135 9.51734 0.252089 10.2468 0.81712 10.8505C1.36087 11.4315 2.22604 11.6213 2.98921 11.6422C4.45575 11.6824 7.39106 11.6824 8.85759 11.6422C9.62076 11.6213 10.4859 11.4313 11.0297 10.8505C11.5947 10.2468 11.8082 9.51743 11.8299 8.70148V2.97091C11.8082 2.15496 11.5947 1.42559 11.0297 0.821883C10.4857 0.240914 9.62057 0.0511172 8.85759 0.0301641ZM5.92321 9.65065C5.16879 9.65065 4.4313 9.42693 3.80402 9.0078C3.17673 8.58866 2.68783 7.99292 2.39912 7.29592C2.11041 6.59892 2.03487 5.83196 2.18205 5.09203C2.32924 4.3521 2.69253 3.67243 3.22599 3.13897C3.75945 2.60551 4.43912 2.24222 5.17905 2.09504C5.91898 1.94785 6.68594 2.02339 7.38294 2.3121C8.07994 2.60081 8.67568 3.08972 9.09482 3.717C9.51395 4.34428 9.73767 5.08177 9.73767 5.8362C9.73767 6.84785 9.33579 7.81807 8.62044 8.53342C7.90509 9.24877 6.93487 9.65065 5.92321 9.65065ZM9.75389 2.8091C9.60301 2.80906 9.45553 2.76429 9.3301 2.68044C9.20467 2.59659 9.10691 2.47743 9.0492 2.33803C8.99149 2.19862 8.97641 2.04524 9.00586 1.89726C9.03532 1.74929 9.108 1.61337 9.21469 1.5067C9.32139 1.40003 9.45733 1.32739 9.60531 1.29797C9.75329 1.26854 9.90667 1.28366 10.0461 1.34141C10.1855 1.39916 10.3046 1.49694 10.3884 1.62239C10.4722 1.74784 10.517 1.89533 10.517 2.04621C10.517 2.14641 10.4972 2.24563 10.4589 2.3382C10.4205 2.43077 10.3643 2.51488 10.2935 2.58572C10.2226 2.65657 10.1385 2.71276 10.0459 2.75108C9.95331 2.78941 9.85409 2.80913 9.75389 2.8091Z" fill="black"/>
</svg>
