<svg width="24" height="24" viewBox="0 0 24 24" fill="none" xmlns="http://www.w3.org/2000/svg">
<g clip-path="url(#clip0_448_921)">
<path d="M12.8025 11.2069L18.2033 18.6766H15.9868L11.5796 12.5813V12.581L10.9325 11.6862L5.78418 4.56543H8.00071L12.1554 10.3122L12.8025 11.2069Z" fill="white"/>
<path d="M21.4067 0H2.59325C1.16108 0 0 1.12268 0 2.50749V20.6988C0 22.0836 1.16108 23.2063 2.59325 23.2063H21.4067C22.8389 23.2063 24 22.0836 24 20.6988V2.50749C24 1.12268 22.8389 0 21.4067 0ZM15.308 19.6794L10.8481 13.4033L5.26435 19.6794H3.82122L10.2073 12.5019L3.82122 3.51498H8.69203L12.9152 9.45802L18.2026 3.51498H19.6458L13.5562 10.3596H13.5558L20.1788 19.6794H15.308Z" fill="white"/>
</g>
<defs>
<clipPath id="clip0_448_921">
<rect width="24" height="23.2063" fill="white"/>
</clipPath>
</defs>
</svg>
